<svg width="30" height="30" viewBox="0 0 30 30" fill="none" xmlns="http://www.w3.org/2000/svg">
<circle cx="15" cy="15" r="15" fill="#006CB5"/>
<path d="M5.51318 13.5903L6.96149 21.9814C7.08072 22.6722 7.67997 23.1769 8.38103 23.1769H21.5285C22.2296 23.1769 22.8288 22.6722 22.9481 21.9814L24.3964 13.5903H5.51318Z" fill="#ACEAF4"/>
<path d="M24.9757 11.9236H4.85385C4.53747 11.9236 4.28101 12.18 4.28101 12.4964V13.7532C4.28101 14.0695 4.53747 14.326 4.85385 14.326H24.9757C25.2921 14.326 25.5486 14.0695 25.5486 13.7532V12.4964C25.5486 12.18 25.2921 11.9236 24.9757 11.9236Z" fill="#86D5E2"/>
<path d="M9.86694 15.9329H11.1304V21.533H9.86694V15.9329Z" fill="#006CB5"/>
<path d="M12.8376 15.9329H14.1011V21.533H12.8376V15.9329Z" fill="#006CB5"/>
<path d="M15.8086 15.9329H17.072V21.533H15.8086V15.9329Z" fill="#006CB5"/>
<path d="M18.7793 15.9329H20.0427V21.533H18.7793V15.9329Z" fill="#006CB5"/>
<path d="M6.70965 13.3239L6.70965 13.3239C6.35427 12.9685 6.35427 12.3923 6.70965 12.0369L12.1339 6.61273C12.4892 6.25735 13.0654 6.25735 13.4208 6.61273L13.4208 6.61273C13.7762 6.9681 13.7762 7.54429 13.4208 7.89967L7.99659 13.3239C7.64121 13.6793 7.06503 13.6793 6.70965 13.3239Z" fill="white"/>
<path d="M23.1198 13.3239L23.1198 13.3239C23.4752 12.9685 23.4752 12.3923 23.1198 12.0369L17.6956 6.61273C17.3402 6.25735 16.764 6.25735 16.4086 6.61273L16.4086 6.61273C16.0532 6.9681 16.0532 7.54429 16.4086 7.89967L21.8328 13.3239C22.1882 13.6793 22.7644 13.6793 23.1198 13.3239Z" fill="white"/>
</svg>
