<svg width="31" height="33" viewBox="0 0 31 33" fill="none" xmlns="http://www.w3.org/2000/svg">
<circle cx="15" cy="15" r="15" fill="#006CB5"/>
<g clip-path="url(#clip0)">
<mask id="mask0" mask-type="alpha" maskUnits="userSpaceOnUse" x="0" y="0" width="30" height="30">
<circle cx="15" cy="15" r="15" fill="#006CB5"/>
</mask>
<g mask="url(#mask0)">
<path d="M25.5768 25.2065L19.8656 23.9691C19.7793 23.9504 19.7 23.9187 19.6258 23.8802L15.0001 26.3649L10.5547 23.76C10.4396 23.8598 10.2968 23.9339 10.1345 23.9691L4.42334 25.2066C3.58937 25.3873 3 26.0725 3 26.8614V30.19C3 30.6595 3.41327 31.04 3.92306 31.04H26.0769C26.5868 31.04 27 30.6595 27 30.19V26.8614C27.0001 26.0724 26.4107 25.3872 25.5768 25.2065Z" fill="#EFF2FA"/>
</g>
<path d="M19 23.5519V20.6399H11V23.5519L15 26.8799L19 23.5519Z" fill="#E6AF78"/>
<path d="M11 20.6399V23.3998C16.0389 24.9262 19 21.1059 19 21.1059V20.6399H11V20.6399Z" fill="#D29B6E"/>
<path d="M9 9.19995L9.40219 18.457C9.43973 19.3217 9.84505 20.1237 10.507 20.6431L12.4154 22.1405C12.8947 22.5166 13.4777 22.72 14.0769 22.72H15.9231C16.5223 22.72 17.1053 22.5166 17.5846 22.1405L19.493 20.6431C20.1549 20.1237 20.5603 19.3218 20.5978 18.457L21 9.19995C20.9999 9.19995 9 9.19995 9 9.19995Z" fill="#F0C087"/>
<path d="M13.6679 11.1314C15.535 11.1314 18.3357 10.6486 19 9.19995H9L9.40676 18.457C9.44473 19.3217 9.85466 20.1237 10.5242 20.6431L12.4542 22.1405C12.939 22.5166 13.5286 22.72 14.1347 22.72H15.0682C14.1347 22.72 12.2675 20.7885 12.2675 18.3743C12.2675 17.1935 12.2675 14.0286 12.2675 12.58C12.2675 12.0971 12.7343 11.1314 13.6679 11.1314Z" fill="#E6AF78"/>
<path d="M10.98 22.3852L15.147 26.2855C15.147 26.2855 13.98 26.8982 12.5399 28.1331C12.2429 28.3878 11.7935 28.2846 11.6342 27.9201L9.67639 23.4408L10.2957 22.4747C10.4499 22.234 10.7734 22.1918 10.98 22.3852Z" fill="#E4EAF6"/>
<path d="M19.314 22.3852L15.147 26.2855C15.147 26.2855 16.314 26.8982 17.7541 28.1331C18.0512 28.3878 18.5005 28.2846 18.6599 27.9201L20.6176 23.4408L19.9983 22.4747C19.8441 22.234 19.5206 22.1918 19.314 22.3852Z" fill="#E4EAF6"/>
<path d="M18 6.36729L18.3792 9.4301C20.1102 9.82578 20.3597 12.9306 20.3956 13.8174C20.4022 13.9783 20.4471 14.1337 20.5235 14.2691L21.184 15.4401C21.184 15.4401 20.9579 13.5041 21.993 12.2039C21.993 12.2039 22.3484 4.51803 18 6.36729Z" fill="#785550"/>
<path d="M21.9697 15.4036L21.4249 17.1648C21.3604 17.3735 21.1284 17.5199 20.8621 17.5199C20.5695 17.5199 20.3228 17.3438 20.2865 17.1092L20.0079 15.3079C19.9333 14.8257 20.3984 14.3999 20.9996 14.3999H21C21.6503 14.3999 22.1274 14.8938 21.9697 15.4036Z" fill="#F0C087"/>
<path d="M9.79141 5.23267L10.4455 5.71424C7.4882 8.06748 8.04092 12.1038 8.04092 12.1038C8.92533 13.057 8.92533 15.44 8.92533 15.44L9.80975 14.4868C9.80975 14.4868 9.46844 11.7333 11.1364 10.674C12.6841 9.69095 14.0384 10.1974 15.4203 10.1974C19.1238 10.1974 20.1603 8.69305 19.9806 6.86111C19.8877 5.9132 18.543 3.93867 15.1163 4.00146C13.7334 4.02679 11.1365 4.47806 9.79141 5.23267Z" fill="#694B4B"/>
<path d="M9.53086 9.99319C9.53086 9.99319 9.06178 8.07243 10.4414 6.08008C7.48905 8.34482 8.04085 12.2293 8.04085 12.2293C8.92379 13.1466 8.92379 15.4401 8.92379 15.4401L9.80673 14.5227C9.80673 14.5227 9.46599 11.8727 11.1311 10.8533C12.6763 9.90724 14.0283 10.3946 15.408 10.3946C16.0093 10.3946 16.5333 10.3528 17 10.2811C14.1526 10.3802 12.4741 8.13931 9.53086 9.99319Z" fill="#5A4146"/>
<path d="M8.03033 15.4036L8.57505 17.1648C8.63961 17.3735 8.8716 17.5199 9.13786 17.5199C9.43047 17.5199 9.67722 17.3438 9.71352 17.1092L9.99213 15.3079C10.0667 14.8257 9.60162 14.3999 9.00044 14.3999H9C8.34973 14.3999 7.87263 14.8938 8.03033 15.4036Z" fill="#E6AF78"/>
</g>
<defs>
<clipPath id="clip0">
<rect width="25" height="26" fill="white" transform="translate(2 4)"/>
</clipPath>
</defs>
</svg>
