<svg width="204" height="94" viewBox="0 0 204 94" fill="none" xmlns="http://www.w3.org/2000/svg">
<path d="M0 74.9726H203.848V71.5613H0V74.9726ZM67.8985 0H139.603V94H67.8985V0Z" fill="#006CB5"/>
<path d="M24.815 7.73218H25.6523H45.4433L66.0717 67.2402H47.803L44.6821 56.9306H25.6523L22.3791 67.2402H4.11047L24.815 7.73218ZM28.9254 43.8919H41.409L35.1672 22.8935L28.9254 43.8919Z" fill="#006CB5"/>
<path d="M145.084 7.12573H145.921H162.134V31.1564L178.804 7.12573H179.642H198.748L176.673 36.2354L199.281 67.2402H198.443H178.119L162.134 42.679V67.2402H161.297H145.007L145.084 7.12573Z" fill="#006CB5"/>
<path d="M3.88213 86.2678L3.19705 88.7694H1.8269L4.64332 78.9904H5.93735L8.75377 88.7694H7.53586L6.85079 86.2678H3.88213ZM4.18661 85.2065H6.62243L5.3284 80.8097L4.18661 85.2065ZM8.82989 88.7694V87.5565C9.43885 87.7839 9.81944 87.5565 10.1239 86.7226C10.4284 85.9646 10.5806 84.7517 10.5806 83.1597V78.9146H15.5284V88.6936H14.2344V80.0517H11.7985V83.463C11.7985 85.4339 11.5702 86.8742 11.0374 87.7839C10.6568 88.6936 9.89556 88.9968 8.82989 88.7694ZM18.7254 80.1275H16.2896V78.9904H22.3791V80.1275H19.9433V88.7694H18.6493V80.1275H18.7254ZM23.8254 86.2678L23.1403 88.7694H21.8463L24.6627 78.9904H25.9568L28.7732 88.7694H27.4791L26.7941 86.2678H23.8254ZM24.1299 85.2065H26.5657L25.3478 80.8097L24.1299 85.2065ZM30.5239 86.4194L34.3299 78.9904H35.5478V88.7694H34.2538V81.3404L30.4478 88.7694H29.2299V78.9904H30.5239V86.4194ZM30.4478 76.792H31.5135C31.5135 77.0952 31.5896 77.3984 31.818 77.6259C31.8941 77.7017 31.9702 77.7775 32.1224 77.8533C32.2747 77.9291 32.3508 77.9291 32.503 77.9291C32.6553 77.9291 32.7314 77.9291 32.8836 77.8533C33.0359 77.7775 33.112 77.7017 33.1881 77.6259C33.3403 77.3984 33.4165 77.171 33.4165 76.8678H34.4821C34.4821 77.3984 34.2538 77.8533 33.8732 78.2323C33.4926 78.5355 33.0359 78.763 32.503 78.6872C31.9702 78.6872 31.5135 78.4597 31.1329 78.1565C30.6762 77.7775 30.4478 77.3226 30.4478 76.792ZM42.3985 85.5855H43.6926C43.5403 86.7984 43.2359 87.6323 42.6269 88.2388C42.3224 88.542 42.018 88.7694 41.5612 88.921C41.1806 89.0726 40.7239 89.1484 40.3433 89.1484C39.8105 89.1484 39.2777 89.0726 38.8209 88.8452C38.3642 88.6178 37.9075 88.2388 37.603 87.8597C36.918 86.9501 36.6135 85.7371 36.6135 84.1452C36.6135 82.5533 36.9179 81.1888 37.5269 80.2791C38.1359 79.2936 39.0493 78.8388 40.3433 78.8388C40.7239 78.8388 41.1806 78.9146 41.5612 78.9904C41.9418 79.142 42.3224 79.3694 42.6269 79.5968C43.2359 80.1275 43.5403 80.9613 43.6165 82.0984H42.3224C42.2463 81.3404 42.018 80.8097 41.7135 80.4307C41.5612 80.2791 41.3329 80.1275 41.1045 79.9759C40.8762 79.9001 40.6478 79.8242 40.3433 79.8242C39.5821 79.8242 39.0493 80.2033 38.5926 80.8855C38.1359 81.5678 37.9836 82.6291 37.9836 84.0694C37.9836 85.2823 38.212 86.192 38.5926 86.95C39.0493 87.7081 39.5821 88.0113 40.3433 88.0113C40.6478 88.0113 40.8762 87.9355 41.1045 87.8597C41.3329 87.7081 41.5612 87.5565 41.7135 87.3291C42.1702 86.7984 42.3985 86.192 42.3985 85.5855ZM45.9762 83.1597L49.1732 78.9904H50.5433L46.9657 83.5388L50.7717 88.7694H49.2493L45.9762 83.9936V88.7694H44.6821V78.9904H45.9762V83.1597ZM52.8269 86.2678L52.1418 88.7694H50.8478L53.6642 78.9904H54.9582L57.7747 88.7694H56.4806L55.7956 86.2678H52.8269ZM53.1314 85.2065H55.5672L54.3493 80.8097L53.1314 85.2065ZM62.6463 84.9033H61.1239L59.2971 88.7694H57.8508L59.906 84.7517C59.6015 84.7517 59.2971 84.6001 59.0687 84.4484C58.8403 84.2968 58.612 84.0694 58.3836 83.842C58.003 83.2355 57.8508 82.6291 57.8508 81.9468C57.8508 81.0371 58.0791 80.2791 58.5359 79.8242C58.9926 79.2936 59.7538 79.0662 60.6672 79.0662H63.8642V88.8452H62.5702V84.9033H62.6463ZM62.6463 80.1275H60.8194C60.5911 80.1275 60.3627 80.1275 60.1344 80.2791C59.906 80.3549 59.7538 80.5065 59.6015 80.6581C59.4493 80.8097 59.2971 81.0371 59.2209 81.2646C59.1448 81.492 59.1448 81.7194 59.1448 81.9468C59.1448 82.4775 59.2971 82.9323 59.6015 83.3113C59.906 83.6146 60.3627 83.7662 60.9717 83.7662H62.6463V80.1275Z" fill="#006CB5"/>
<path d="M145.388 83.1596L148.585 78.9902H149.955L146.378 83.5386L150.184 88.7693H148.661L145.388 83.9935V88.7693H144.094V78.9902H145.388V83.1596ZM150.031 83.9177C150.031 82.2499 150.336 80.9612 151.021 80.0515C151.325 79.6725 151.706 79.2935 152.239 79.066C152.695 78.8386 153.228 78.687 153.761 78.687C154.294 78.687 154.827 78.8386 155.284 79.066C155.74 79.2935 156.121 79.6725 156.501 80.0515C157.187 80.9612 157.491 82.2499 157.491 83.9177C157.491 85.5096 157.187 86.7983 156.501 87.708C156.197 88.1628 155.816 88.5418 155.284 88.7693C154.827 88.9967 154.294 89.1483 153.685 89.0725C152.467 89.0725 151.554 88.6176 150.945 87.708C150.336 86.7983 150.031 85.5096 150.031 83.9177ZM151.401 83.9177C151.401 85.2822 151.63 86.2676 152.01 86.9499C152.467 87.6322 153 88.0112 153.761 88.0112C154.522 88.0112 155.055 87.6322 155.512 86.9499C155.969 86.2676 156.197 85.2064 156.197 83.9177C156.197 82.7047 155.969 81.7193 155.588 80.9612C155.207 80.2031 154.598 79.8241 153.837 79.8241C153.076 79.8241 152.467 80.2031 152.087 80.9612C151.554 81.7193 151.401 82.7047 151.401 83.9177ZM162.058 88.8451L159.851 81.1886H159.775L159.851 81.7193V88.8451H158.557V79.066H160.307L162.515 86.8741L164.722 79.066H166.473V88.8451H165.179V81.7193L165.255 81.1886H165.179L162.972 88.8451H162.058ZM169.518 80.1273V88.7693H168.224V78.9902H174.313V88.7693H173.019V80.1273H169.518ZM176.825 86.2677L176.14 88.7693H174.846L177.663 78.9902H178.957L181.773 88.7693H180.479L179.794 86.2677H176.825ZM177.054 85.2064H179.49L178.272 80.8096L177.054 85.2064ZM183.448 84.2209V88.8451H182.23V79.066H183.524V83.1596H187.025V79.066H188.319V88.8451H187.025V84.2209H183.448ZM191.212 86.4193L195.018 78.9902H196.236V88.7693H194.942V81.3402L191.136 88.7693H189.918V78.9902H191.212V86.4193ZM202.706 84.9031H201.184L199.357 88.7693H197.91L199.966 84.7515C199.661 84.7515 199.357 84.5999 199.128 84.4483C198.9 84.2967 198.672 84.0693 198.443 83.8418C198.063 83.2354 197.91 82.6289 197.91 81.9467C197.91 81.037 198.139 80.2789 198.595 79.8241C199.052 79.2935 199.813 79.066 200.727 79.066H203.924V88.8451H202.63L202.706 84.9031ZM202.706 80.1273H200.879C200.651 80.1273 200.422 80.1273 200.194 80.2789C199.966 80.3548 199.813 80.5064 199.661 80.658C199.509 80.8096 199.357 81.037 199.281 81.2644C199.204 81.4918 199.204 81.7193 199.204 81.9467C199.204 82.5531 199.357 83.008 199.661 83.3112C199.966 83.6144 200.422 83.766 201.031 83.766H202.706V80.1273Z" fill="#006CB5"/>
<path d="M129.555 80.1273H127.728C127.5 80.1273 127.272 80.1273 127.043 80.2789C126.815 80.3548 126.663 80.5064 126.51 80.658C126.358 80.8096 126.206 81.037 126.13 81.2644C126.054 81.4918 126.054 81.7193 126.054 81.9467C126.054 82.4773 126.206 82.9322 126.51 83.3112C126.815 83.6144 127.272 83.766 127.881 83.766H129.555V80.1273ZM129.555 84.9031H128.033L126.206 88.7693H124.76L126.815 84.7515C126.51 84.7515 126.206 84.5999 125.978 84.4483C125.749 84.2967 125.521 84.0693 125.293 83.8418C124.912 83.2354 124.76 82.6289 124.76 81.9467C124.76 81.037 124.988 80.2789 125.445 79.8241C125.901 79.2935 126.663 79.066 127.576 79.066H130.773V88.8451H129.479L129.555 84.9031ZM119.279 85.2064H121.715L120.497 80.8096L119.279 85.2064ZM118.975 86.2677L118.29 88.7693H116.996L119.812 78.9902H121.106L123.922 88.7693H122.628L121.943 86.2677H118.975ZM111.591 84.2967V87.708H113.418C114.027 87.708 114.484 87.5564 114.788 87.2531C115.093 86.9499 115.169 86.5709 115.169 85.9644C115.169 85.358 115.016 84.9789 114.712 84.6757C114.407 84.4483 114.027 84.2967 113.418 84.2967H111.591ZM111.591 80.1273V83.1596H113.342C113.57 83.1596 113.722 83.1596 113.951 83.0838C114.179 83.008 114.331 82.9322 114.484 82.7806C114.788 82.4773 114.864 82.0225 114.864 81.6435C114.864 81.2644 114.788 80.8096 114.484 80.5064C114.331 80.3547 114.179 80.2789 113.951 80.2031C113.722 80.1273 113.57 80.1273 113.342 80.1273H111.591ZM110.297 78.9902H113.57C114.407 78.9902 115.016 79.2177 115.473 79.6725C115.93 80.2031 116.158 80.8096 116.158 81.4918C116.158 81.9467 116.006 82.4015 115.778 82.8564C115.549 83.2354 115.169 83.5386 114.712 83.6144V83.6902C115.245 83.766 115.701 84.0693 116.006 84.4483C116.387 84.9031 116.539 85.5096 116.539 86.116C116.539 87.0257 116.31 87.708 115.778 88.1628C115.321 88.6177 114.56 88.8451 113.57 88.8451H110.373V78.9902H110.297ZM102.913 83.9177C102.913 85.2822 103.142 86.2677 103.522 86.9499C103.979 87.6322 104.512 88.0112 105.273 88.0112C106.034 88.0112 106.567 87.6322 107.024 86.9499C107.481 86.2677 107.709 85.2064 107.709 83.9177C107.709 82.7047 107.481 81.7193 107.1 80.9612C106.719 80.2031 106.11 79.8241 105.349 79.8241C104.588 79.8241 103.979 80.2031 103.598 80.9612C103.142 81.7193 102.913 82.7047 102.913 83.9177ZM101.619 83.9177C101.619 82.2499 101.924 80.9612 102.609 80.0515C102.913 79.6725 103.294 79.2935 103.827 79.066C104.284 78.8386 104.816 78.687 105.349 78.687C105.882 78.687 106.415 78.8386 106.872 79.066C107.328 79.2935 107.709 79.6725 108.09 80.0515C108.775 80.9612 109.079 82.2499 109.079 83.9177C109.079 85.5096 108.775 86.7983 108.09 87.708C107.785 88.1628 107.404 88.5418 106.872 88.7693C106.415 88.9967 105.882 89.1483 105.273 89.0725C104.055 89.0725 103.142 88.6177 102.533 87.708C101.924 86.7983 101.619 85.5096 101.619 83.9177ZM93.8552 88.7693V87.5564C94.4642 87.7838 94.8448 87.5564 95.1492 86.7225C95.4537 85.9644 95.606 84.7515 95.606 83.1596V78.9144H100.554V88.6935H99.2597V80.0515H96.8239V83.4628C96.8239 85.4338 96.5955 86.8741 96.0627 87.7838C95.606 88.6935 94.8448 88.9967 93.8552 88.7693ZM88.4507 83.2354H92.4089V84.3725H88.4507V87.7838H92.9418V88.9209H87.2328V79.1418H92.8657V80.2789H88.5269L88.4507 83.2354ZM79.8492 87.708H83.4269V80.1273H81.0672V81.3402C81.0672 82.5531 80.991 83.766 80.7627 84.9789C80.6104 85.9644 80.306 86.8741 79.8492 87.708ZM77.7179 87.708H78.403C78.8597 86.7983 79.2403 85.8886 79.4686 84.8273C79.697 83.5386 79.8492 82.3257 79.8492 81.037V79.066H84.7209V87.708H85.7866L85.7104 91.0435H84.5686V88.8451H78.9358V91.0435H77.794L77.7179 87.708Z" fill="white"/>
<path d="M128.49 53.4436L111.743 7.20166H95.6821L79.3926 52.0791L78.8597 53.4436H72.3135V67.392H135.264V53.4436H128.49ZM92.7896 53.4436L103.446 28.1242L114.255 53.4436H92.7896Z" fill="white"/>
</svg>
