<svg width="36" height="36" viewBox="0 0 36 36" fill="none" xmlns="http://www.w3.org/2000/svg">
<path d="M24.7963 23.5003C27.0978 21.0088 28.5336 17.6727 28.5336 13.9988C28.5336 6.29206 22.2626 0 14.5347 0C6.80686 0 0.535889 6.29206 0.535889 13.9988C0.535889 21.7056 6.80686 27.9977 14.5347 27.9977C17.6808 27.9977 20.5734 26.9631 22.9171 25.2106L33.3265 35.6199C33.5798 35.8733 33.8966 36 34.2133 36C34.53 36 34.8678 35.8733 35.1001 35.6199C35.5857 35.1343 35.5857 34.332 35.1001 33.8252L24.7963 23.5003ZM3.06961 13.9988C3.06961 7.68561 8.20041 2.53373 14.5347 2.53373C20.8479 2.53373 25.9998 7.66452 25.9998 13.9988C25.9998 20.3332 20.869 25.4639 14.5347 25.4639C8.20041 25.4639 3.06961 20.3121 3.06961 13.9988Z" fill="#006CB5"/>
</svg>
