<svg width="41" height="41" viewBox="0 0 41 41" fill="none" xmlns="http://www.w3.org/2000/svg">
<g clip-path="url(#clip0)">
<path d="M25.7773 28.6984L28.7778 25.6982L32.0823 29.003L29.0821 32.0031L25.7773 28.6984Z" fill="#B7C1C6"/>
<path d="M40.6912 38.4606L38.5403 40.6112C38.022 41.1295 37.1815 41.1295 36.6632 40.6112L29.1768 33.1248C28.6585 32.6065 28.6585 31.766 29.1768 31.2476L31.3274 29.0971C31.8457 28.5785 32.6862 28.5785 33.2045 29.0971L40.6912 36.5835C41.2095 37.1018 41.2095 37.9423 40.6912 38.4606Z" fill="#006CB5"/>
<path d="M33.205 29.0971L40.6914 36.5832C41.2097 37.1015 41.2097 37.942 40.6914 38.4603L39.4111 39.7403C39.9294 39.222 39.9294 38.3815 39.4111 37.8632L31.925 30.3771C31.4067 29.8588 30.5662 29.8588 30.0479 30.3771L31.3279 29.0971C31.8462 28.5785 32.6867 28.5785 33.205 29.0971Z" fill="#3A82D0"/>
<path d="M29.5643 26.4843C29.1314 27.0386 28.6619 27.5706 28.1564 28.0765C27.6506 28.5819 27.1185 29.0515 26.5642 29.4847L25.7778 28.6983L28.7783 25.6979L29.5643 26.4843Z" fill="#93A3AF"/>
<path d="M32.0729 16.0366C32.0729 24.893 24.893 32.0729 16.0366 32.0729C7.17982 32.0729 0 24.893 0 16.0366C0 7.17982 7.17982 0 16.0366 0C24.893 0 32.0729 7.17982 32.0729 16.0366Z" fill="#006CB5"/>
<path d="M16.1165 29.8694C12.4213 29.8694 8.94763 28.4305 6.33508 25.818C0.941692 20.4246 0.941692 11.6485 6.33508 6.25514C8.94763 3.64227 12.4213 2.20337 16.1165 2.20337C19.8114 2.20337 23.2851 3.64227 25.8976 6.25514C31.291 11.6485 31.291 20.4243 25.8976 25.818C23.2851 28.4305 19.8114 29.8694 16.1165 29.8694Z" fill="white"/>
<path d="M17 10C17 9.44772 16.5523 9 16 9C15.4477 9 15 9.44772 15 10H17ZM15 22C15 22.5523 15.4477 23 16 23C16.5523 23 17 22.5523 17 22H15ZM15 10V22H17V10H15Z" fill="#006CB5"/>
<path d="M10 17C9.44772 17 9 16.5523 9 16C9 15.4477 9.44772 15 10 15L10 17ZM22 15C22.5523 15 23 15.4477 23 16C23 16.5523 22.5523 17 22 17L22 15ZM10 15L22 15L22 17L10 17L10 15Z" fill="#006CB5"/>
</g>
<defs>
<clipPath id="clip0">
<rect width="41" height="41" fill="white"/>
</clipPath>
</defs>
</svg>
