<svg width="30" height="30" viewBox="0 0 30 30" fill="none" xmlns="http://www.w3.org/2000/svg">
<circle cx="15" cy="15" r="15" fill="#006CB5"/>
<g clip-path="url(#clip0)">
<path d="M21.8333 16.3333H19.996C19.4773 16.3333 19.028 16.6673 18.8787 17.1646L18.306 19.0726C18.1993 19.4279 17.8787 19.6666 17.508 19.6666H12.492C12.1213 19.6666 11.8007 19.4279 11.694 19.0726L11.1213 17.1653C10.972 16.6673 10.5233 16.3333 10.004 16.3333H8.16667C7.52333 16.3333 7 16.8566 7 17.4999V21.1666C7 22.1779 7.822 22.9999 8.83333 22.9999H21.1667C22.178 22.9999 23 22.1779 23 21.1666V17.4999C23 16.8566 22.4767 16.3333 21.8333 16.3333Z" fill="#ACEAF4"/>
<path d="M12.1666 12.8333L15 15.8333L17.8333 12.8333H12.1666Z" fill="white"/>
<path d="M14.9999 16.3333C14.8626 16.3333 14.7313 16.2766 14.6366 16.1766L11.8033 13.1766C11.6659 13.0313 11.6279 12.8186 11.7079 12.6353C11.7866 12.4519 11.9666 12.3333 12.1666 12.3333H17.8333C18.0333 12.3333 18.2133 12.4519 18.2919 12.6353C18.3713 12.8186 18.3333 13.0313 18.1959 13.1766L15.3626 16.1766C15.2686 16.2766 15.1373 16.3333 14.9999 16.3333ZM13.3266 13.3333L14.9999 15.1053L16.6733 13.3333H13.3266Z" fill="white"/>
<path d="M14.9999 15.1667C14.6313 15.1667 14.3333 14.868 14.3333 14.5V7.66667C14.3333 7.29867 14.6313 7 14.9999 7C15.3686 7 15.6666 7.29867 15.6666 7.66667V14.5C15.6666 14.868 15.3686 15.1667 14.9999 15.1667Z" fill="white"/>
</g>
<defs>
<clipPath id="clip0">
<rect width="16" height="16" fill="white" transform="translate(7 7)"/>
</clipPath>
</defs>
</svg>
